<?xml version="1.0" standalone="no"?>
<!DOCTYPE svg PUBLIC "-//W3C//DTD SVG 20010904//EN"
 "http://www.w3.org/TR/2001/REC-SVG-20010904/DTD/svg10.dtd">
<svg version="1.0" xmlns="http://www.w3.org/2000/svg"
 width="1560.000000pt" height="1061.000000pt" viewBox="0 0 1560.000000 1061.000000"
 preserveAspectRatio="xMidYMid meet">

<g transform="translate(0.000000,1061.000000) scale(0.100000,-0.100000)"
fill="#000000" stroke="none">
<path d="M4055 10249 c-759 -35 -1485 -250 -2073 -613 -393 -244 -759 -582
-1044 -966 -494 -666 -789 -1476 -894 -2450 -34 -325 -29 -892 11 -1245 113
-968 493 -1882 1080 -2591 133 -161 432 -457 585 -579 667 -535 1398 -825
2257 -896 184 -15 821 -6 1028 15 537 53 924 139 1309 290 1052 413 1660 1221
1845 2456 53 351 54 379 58 1333 l4 897 -1830 0 -1831 0 0 -715 0 -715 982 0
981 0 -7 -152 c-28 -616 -208 -1070 -544 -1372 -325 -291 -780 -446 -1397
-476 -642 -30 -1130 111 -1573 458 -496 387 -867 1078 -1001 1867 -73 425 -80
968 -20 1450 162 1286 775 2140 1723 2400 249 68 348 80 661 80 327 0 437 -15
685 -92 349 -108 615 -265 856 -507 226 -227 367 -485 423 -777 l18 -94 917
-3 c871 -2 917 -1 912 15 -3 10 -10 63 -16 118 -76 668 -374 1281 -860 1765
-480 479 -1120 819 -1853 985 -451 102 -885 138 -1392 114z"/>
</g>
</svg>
